<svg width="73" height="77" viewBox="0 0 73 77" fill="none" xmlns="http://www.w3.org/2000/svg">
<path d="M64.49 73.23H50.61V70.43H61.68V3.73C61.68 3.22 61.26 2.8 60.75 2.8H11.49C10.99 2.8 10.56 3.23 10.56 3.73V70.42H21.75V73.22H7.76001V3.73C7.76001 1.68 9.43001 0 11.49 0H60.76C62.82 0 64.49 1.68 64.49 3.73V73.23Z" fill="#FF699F"/>
<path d="M57.21 73.23H50.65V70.43H54.41V10.17C54.41 10.1 54.35 10.04 54.28 10.04H17.96C17.89 10.04 17.83 10.1 17.83 10.17V70.43H21.62V73.23H15.03V10.17C15.03 8.54999 16.34 7.23999 17.96 7.23999H54.28C55.89 7.23999 57.21 8.55999 57.21 10.17V73.23Z" fill="#FF699F"/>
<path d="M49.59 76.24H22.66C21.34 76.24 20.27 75.17 20.27 73.85V69.8C20.27 68.48 21.34 67.41 22.66 67.41H49.59C50.91 67.41 51.98 68.48 51.98 69.8V73.85C51.97 75.17 50.9 76.24 49.59 76.24ZM23.07 73.44H49.18V70.21H23.07V73.44Z" fill="#FF699F"/>
<path d="M40.57 25.03H31.68C30.5 25.03 29.53 24.07 29.53 22.88V18.35C29.53 17.16 30.49 16.2 31.68 16.2H40.57C41.75 16.2 42.72 17.16 42.72 18.35V22.88C42.72 24.07 41.75 25.03 40.57 25.03ZM32.33 22.23H39.91V19H32.33V22.23Z" fill="#FF699F"/>
<path d="M51.79 52.48H47.84C46.69 52.48 45.76 51.55 45.76 50.4V37.92C45.76 36.77 46.69 35.84 47.84 35.84H51.79C52.94 35.84 53.87 36.77 53.87 37.92V50.4C53.87 51.54 52.94 52.48 51.79 52.48ZM48.56 49.68H51.07V38.64H48.56V49.68Z" fill="#FF699F"/>
<path d="M10.56 73.23H2C0.9 73.23 0 72.33 0 71.23V64.64C0 63.54 0.9 62.64 2 62.64H8.57C9.67 62.64 10.57 63.54 10.57 64.64V73.23H10.56ZM2.8 70.43H7.76V65.45H2.8V70.43Z" fill="#FF699F"/>
<path d="M70.08 73.23H61.69V64.82C61.69 63.62 62.66 62.65 63.86 62.65H70.09C71.28 62.65 72.26 63.62 72.26 64.82V71.07C72.25 72.25 71.28 73.23 70.08 73.23ZM64.49 70.43H69.45V65.45H64.49V70.43Z" fill="#FF699F"/>
<path d="M36.12 32.76C34.23 32.76 32.68 31.22 32.68 29.32C32.68 27.42 34.22 25.88 36.12 25.88C38.02 25.88 39.56 27.42 39.56 29.32C39.56 31.21 38.02 32.76 36.12 32.76ZM36.12 28.68C35.77 28.68 35.48 28.97 35.48 29.32C35.48 29.67 35.77 29.96 36.12 29.96C36.47 29.96 36.75 29.67 36.75 29.32C36.76 28.96 36.47 28.68 36.12 28.68Z" fill="#FF699F"/>
</svg>
