<svg width="60" height="56" viewBox="0 0 60 56" fill="none" xmlns="http://www.w3.org/2000/svg">
<path d="M45.3512 55.9275C44.659 55.9275 43.9642 55.7612 43.3222 55.4236L30.4058 48.6347C30.1519 48.5019 29.8489 48.5019 29.595 48.6347L16.6786 55.4236C15.2013 56.1994 13.4443 56.0731 12.0947 55.0924C10.745 54.1117 10.0812 52.4815 10.3635 50.8371L12.8295 36.4576C12.8784 36.1754 12.7843 35.8867 12.5794 35.687L2.13023 25.5036C0.935273 24.3386 0.512461 22.6298 1.02937 21.0434C1.54629 19.457 2.89078 18.3216 4.54336 18.0819L18.9847 15.9839C19.2683 15.9426 19.5132 15.7648 19.6409 15.5083L26.0991 2.42535C26.8351 0.929161 28.3317 0 29.9998 0C31.6691 0 33.1644 0.929161 33.903 2.42535L40.3612 15.5071C40.4876 15.7635 40.7325 15.9426 41.0161 15.9826L55.4575 18.0806C57.1087 18.3203 58.4558 19.4557 58.9714 21.0421C59.4871 22.6285 59.0655 24.3386 57.8706 25.5023L47.4214 35.6857C47.2165 35.8854 47.1224 36.1741 47.1714 36.4563L49.6386 50.8358C49.9209 52.4802 49.2571 54.1104 47.9074 55.0911C47.143 55.6465 46.2497 55.9275 45.3512 55.9275ZM29.9998 45.0533C30.6959 45.0533 31.3907 45.2196 32.0249 45.5534L44.9413 52.3423C45.3731 52.5691 45.7263 52.3719 45.8578 52.2766C45.9893 52.1812 46.2871 51.9067 46.2046 51.426L43.7373 37.0466C43.495 35.6354 43.9629 34.1947 44.989 33.1946L55.4381 23.0112C55.7875 22.671 55.7088 22.2741 55.6585 22.1194C55.6083 21.9648 55.4394 21.5975 54.956 21.5266L40.5146 19.4286C39.0967 19.2224 37.8721 18.3332 37.2378 17.0484L30.7796 3.96536C30.5631 3.5272 30.1622 3.48081 29.9998 3.48081C29.8373 3.48081 29.4352 3.52849 29.2186 3.96536L22.7604 17.0484C22.1262 18.3332 20.9016 19.2224 19.4836 19.4286L5.04352 21.5266C4.56012 21.5962 4.39125 21.9648 4.34098 22.1194C4.2907 22.2741 4.21207 22.671 4.56141 23.0112L15.0105 33.1946C16.0366 34.1947 16.5046 35.6341 16.2622 37.0466L13.795 51.426C13.7125 51.9067 14.0102 52.1812 14.1417 52.2766C14.2732 52.3719 14.6264 52.5704 15.0582 52.3423L27.9746 45.5534C28.6089 45.2209 29.305 45.0533 29.9998 45.0533Z" fill="#FF699F"/>
</svg>
